<svg xmlns="http://www.w3.org/2000/svg" xmlns:xlink="http://www.w3.org/1999/xlink" viewBox="0,0,256,256" width="128px" height="128px" fill-rule="nonzero"><g fill="#60c3d7" fill-rule="nonzero" stroke="none" stroke-width="1" stroke-linecap="butt" stroke-linejoin="miter" stroke-miterlimit="10" stroke-dasharray="" stroke-dashoffset="0" font-family="none" font-weight="none" font-size="none" text-anchor="none" style="mix-blend-mode: normal"><g transform="scale(2,2)"><path d="M93.36328,4.09961c-0.7625,0 -1.5125,0.30039 -2.0625,0.90039c-1.2,1.2 -1.2,3.09922 0,4.19922l6.29883,6.30078c-2.7,1.1 -6.79961,2.50039 -11.59961,2.90039c-6.7,0.6 -15.50078,-0.9 -18.80078,-1.5c-1.7,-0.3 -2.79844,-0.50039 -3.89844,0.59961c-0.3,0.3 -0.60117,0.69961 -0.70117,1.09961l-14.79883,43c-0.5,1.6 0.29844,3.30078 1.89844,3.80078c0.3,0.1 0.7,0.19922 1,0.19922c1.2,0 2.40078,-0.8 2.80078,-2l14,-40.59961c4.1,0.7 12.39961,2.00039 19.09961,1.40039c5.2,-0.5 10.49961,-2.00039 15.59961,-4.40039l6.60156,6.59961c-2.3,4.4 -3.70156,9.09961 -4.10156,14.09961c-0.7,7.2 0.60078,16.40117 1.30078,20.70117l-52.59961,18.29883l28.90039,-28.89844c1.2,-1.2 1.2,-3.10117 0,-4.20117c-1.2,-1.2 -3.10117,-1.2 -4.20117,0l-38.19922,38.09961c-0.8,0.8 -1.10117,2.00156 -0.70117,3.10156c0.4,1.2 1.60078,2 2.80078,2c0.3,0 0.7,-0.10117 1,-0.20117l67.19922,-23.29883c0.4,-0.1 0.80156,-0.40117 1.10156,-0.70117c1.1,-1.1 0.99961,-2.09961 0.59961,-4.09961c-0.6,-3.6 -2.00039,-13.09922 -1.40039,-20.19922c0.3,-3.6 1.19961,-7.00117 2.59961,-10.20117l6.40039,6.40039c0.6,0.6 1.39961,0.90039 2.09961,0.90039c0.7,0 1.49961,-0.30039 2.09961,-0.90039c1.2,-1.2 1.2,-3.09922 0,-4.19922l-28.19922,-28.30078c-0.6,-0.6 -1.37422,-0.90039 -2.13672,-0.90039zM15,20c-7.2,0 -13,5.8 -13,13c0,6.1 4.3,11.29961 10,12.59961v7.40039c0,34.7 28.3,63 63,63h7.40039c1.4,5.7 6.49961,10 12.59961,10c7.2,0 13,-5.8 13,-13c0,-7.2 -5.8,-13 -13,-13c-6.1,0 -11.29961,4.3 -12.59961,10h-7.40039c-31.4,0 -57,-25.6 -57,-57v-7.40039c5.7,-1.4 10,-6.49961 10,-12.59961c0,-7.2 -5.8,-13 -13,-13zM15,26c3.9,0 7,3.1 7,7c0,3.9 -3.1,7 -7,7c-3.9,0 -7,-3.1 -7,-7c0,-3.9 3.1,-7 7,-7zM93.26172,32.59961c-0.7625,0 -1.5125,0.30039 -2.0625,0.90039l-3,3c-1.2,1.2 -1.2,3.09922 0,4.19922c0.6,0.6 1.40156,0.90039 2.10156,0.90039c0.7,0 1.49961,-0.30039 2.09961,-0.90039l3,-3c1.2,-1.2 1.2,-3.09922 0,-4.19922c-0.6,-0.6 -1.37617,-0.90039 -2.13867,-0.90039zM95,106c3.9,0 7,3.1 7,7c0,3.9 -3.1,7 -7,7c-3.9,0 -7,-3.1 -7,-7c0,-3.9 3.1,-7 7,-7z"></path></g></g></svg>